<mxfile host="app.diagrams.net" modified="2020-11-04T02:18:01.823Z" agent="5.0 (X11; Linux x86_64) AppleWebKit/537.36 (KHTML, like Gecko) Chrome/79.0.3945.88 Safari/537.36" etag="Z8ybblC0EMo8pGQvDmVq" version="13.8.9-1" type="github">
  <diagram id="22Z9Jt0GZ31_iuqkjA3E" name="Page-1">
    <mxGraphModel dx="1355" dy="1874" grid="1" gridSize="10" guides="1" tooltips="1" connect="1" arrows="1" fold="1" page="1" pageScale="1" pageWidth="850" pageHeight="1100" math="0" shadow="0">
      <root>
        <mxCell id="0" />
        <mxCell id="1" parent="0" />
        <mxCell id="tQyNcPp7STeRihkDV-gq-1" value="" style="shape=curlyBracket;whiteSpace=wrap;html=1;rounded=1;rotation=-90;" vertex="1" parent="1">
          <mxGeometry x="373" y="-541.56" width="57.81" height="517.81" as="geometry" />
        </mxCell>
        <mxCell id="tQyNcPp7STeRihkDV-gq-2" value="视频" style="shape=document;whiteSpace=wrap;html=1;boundedLbl=1;" vertex="1" parent="1">
          <mxGeometry x="368" y="-1068.13" width="80" height="50" as="geometry" />
        </mxCell>
        <mxCell id="tQyNcPp7STeRihkDV-gq-3" value="&lt;font style=&quot;font-size: 10px&quot;&gt;视频片段1&lt;/font&gt;" style="shape=document;whiteSpace=wrap;html=1;boundedLbl=1;" vertex="1" parent="1">
          <mxGeometry x="220" y="-872.63" width="50" height="40" as="geometry" />
        </mxCell>
        <mxCell id="tQyNcPp7STeRihkDV-gq-4" value="&lt;font style=&quot;font-size: 10px&quot;&gt;视频片段2&lt;/font&gt;" style="shape=document;whiteSpace=wrap;html=1;boundedLbl=1;" vertex="1" parent="1">
          <mxGeometry x="313" y="-872.63" width="50" height="40" as="geometry" />
        </mxCell>
        <mxCell id="tQyNcPp7STeRihkDV-gq-5" value="&lt;font style=&quot;font-size: 10px&quot;&gt;视频片段3&lt;/font&gt;" style="shape=document;whiteSpace=wrap;html=1;boundedLbl=1;" vertex="1" parent="1">
          <mxGeometry x="397.38" y="-872.63" width="50" height="40" as="geometry" />
        </mxCell>
        <mxCell id="tQyNcPp7STeRihkDV-gq-6" value="&lt;font style=&quot;font-size: 10px&quot;&gt;视频片段M&lt;/font&gt;" style="shape=document;whiteSpace=wrap;html=1;boundedLbl=1;size=0.6375;" vertex="1" parent="1">
          <mxGeometry x="553" y="-872.13" width="60" height="40" as="geometry" />
        </mxCell>
        <mxCell id="tQyNcPp7STeRihkDV-gq-7" value="... ..." style="text;html=1;resizable=0;autosize=1;align=center;verticalAlign=middle;points=[];fillColor=none;strokeColor=none;rounded=0;" vertex="1" parent="1">
          <mxGeometry x="473" y="-872.63" width="40" height="20" as="geometry" />
        </mxCell>
        <mxCell id="tQyNcPp7STeRihkDV-gq-8" style="edgeStyle=orthogonalEdgeStyle;rounded=0;orthogonalLoop=1;jettySize=auto;html=1;exitX=0.1;exitY=0.5;exitDx=0;exitDy=0;exitPerimeter=0;endArrow=none;endFill=0;entryX=0.5;entryY=1;entryDx=0;entryDy=0;" edge="1" parent="1" source="tQyNcPp7STeRihkDV-gq-9" target="tQyNcPp7STeRihkDV-gq-12">
          <mxGeometry relative="1" as="geometry">
            <mxPoint x="408" y="-888.13" as="targetPoint" />
          </mxGeometry>
        </mxCell>
        <mxCell id="tQyNcPp7STeRihkDV-gq-9" value="" style="shape=curlyBracket;whiteSpace=wrap;html=1;rounded=1;rotation=90;" vertex="1" parent="1">
          <mxGeometry x="385.51" y="-1110" width="44.38" height="384.38" as="geometry" />
        </mxCell>
        <mxCell id="tQyNcPp7STeRihkDV-gq-10" value="" style="endArrow=classic;html=1;" edge="1" parent="1">
          <mxGeometry width="50" height="50" relative="1" as="geometry">
            <mxPoint x="244.66000000000008" y="-832.6300000000001" as="sourcePoint" />
            <mxPoint x="244.66000000000008" y="-782.6300000000001" as="targetPoint" />
          </mxGeometry>
        </mxCell>
        <mxCell id="tQyNcPp7STeRihkDV-gq-11" value="&lt;font style=&quot;font-size: 10px&quot;&gt;Top20标签+置信度&lt;/font&gt;" style="shape=parallelogram;html=1;strokeWidth=2;perimeter=parallelogramPerimeter;whiteSpace=wrap;rounded=1;arcSize=12;size=0.23;fillColor=#d5e8d4;strokeColor=#82b366;" vertex="1" parent="1">
          <mxGeometry x="203" y="-778.13" width="70" height="50" as="geometry" />
        </mxCell>
        <mxCell id="tQyNcPp7STeRihkDV-gq-12" value="视频拆分" style="rounded=0;whiteSpace=wrap;html=1;" vertex="1" parent="1">
          <mxGeometry x="363" y="-988.13" width="90" height="40" as="geometry" />
        </mxCell>
        <mxCell id="tQyNcPp7STeRihkDV-gq-13" value="" style="endArrow=classic;html=1;entryX=0.5;entryY=0;entryDx=0;entryDy=0;" edge="1" parent="1" target="tQyNcPp7STeRihkDV-gq-12">
          <mxGeometry width="50" height="50" relative="1" as="geometry">
            <mxPoint x="408" y="-1018.13" as="sourcePoint" />
            <mxPoint x="458" y="-1068.13" as="targetPoint" />
          </mxGeometry>
        </mxCell>
        <mxCell id="tQyNcPp7STeRihkDV-gq-14" value="&lt;font&gt;&lt;font style=&quot;font-size: 12px&quot;&gt;&lt;font color=&quot;#cc0000&quot;&gt;duration&lt;/font&gt;(视频时长), e.g. = 60S/120S&lt;br&gt;&lt;font color=&quot;#cc0000&quot;&gt;sample_rate(&lt;/font&gt;采样率); 0.2&lt;/font&gt;&lt;br&gt;&lt;/font&gt;" style="text;html=1;resizable=0;autosize=1;align=center;verticalAlign=middle;points=[];fillColor=none;strokeColor=none;rounded=0;" vertex="1" parent="1">
          <mxGeometry x="458" y="-993.13" width="210" height="30" as="geometry" />
        </mxCell>
        <mxCell id="tQyNcPp7STeRihkDV-gq-15" value="" style="endArrow=classic;html=1;" edge="1" parent="1">
          <mxGeometry width="50" height="50" relative="1" as="geometry">
            <mxPoint x="339.6600000000001" y="-832.6300000000001" as="sourcePoint" />
            <mxPoint x="339.6600000000001" y="-782.6300000000001" as="targetPoint" />
          </mxGeometry>
        </mxCell>
        <mxCell id="tQyNcPp7STeRihkDV-gq-16" value="&lt;font style=&quot;font-size: 10px&quot;&gt;Top20标签&lt;/font&gt;&lt;span style=&quot;font-size: 10px&quot;&gt;+置信度&lt;/span&gt;" style="shape=parallelogram;html=1;strokeWidth=2;perimeter=parallelogramPerimeter;whiteSpace=wrap;rounded=1;arcSize=12;size=0.23;fillColor=#d5e8d4;strokeColor=#82b366;" vertex="1" parent="1">
          <mxGeometry x="298" y="-778.13" width="70" height="50" as="geometry" />
        </mxCell>
        <mxCell id="tQyNcPp7STeRihkDV-gq-17" value="" style="endArrow=classic;html=1;" edge="1" parent="1">
          <mxGeometry width="50" height="50" relative="1" as="geometry">
            <mxPoint x="424.6600000000001" y="-832.6300000000001" as="sourcePoint" />
            <mxPoint x="424.6600000000001" y="-782.6300000000001" as="targetPoint" />
          </mxGeometry>
        </mxCell>
        <mxCell id="tQyNcPp7STeRihkDV-gq-18" value="&lt;font style=&quot;font-size: 10px&quot;&gt;Top20标签&lt;/font&gt;&lt;span style=&quot;font-size: 10px&quot;&gt;+置信度&lt;/span&gt;" style="shape=parallelogram;html=1;strokeWidth=2;perimeter=parallelogramPerimeter;whiteSpace=wrap;rounded=1;arcSize=12;size=0.23;fillColor=#d5e8d4;strokeColor=#82b366;" vertex="1" parent="1">
          <mxGeometry x="383" y="-778.13" width="70" height="50" as="geometry" />
        </mxCell>
        <mxCell id="tQyNcPp7STeRihkDV-gq-19" value="" style="endArrow=classic;html=1;" edge="1" parent="1">
          <mxGeometry width="50" height="50" relative="1" as="geometry">
            <mxPoint x="574.6600000000001" y="-832.6300000000001" as="sourcePoint" />
            <mxPoint x="574.6600000000001" y="-782.6300000000001" as="targetPoint" />
          </mxGeometry>
        </mxCell>
        <mxCell id="tQyNcPp7STeRihkDV-gq-20" value="&lt;font style=&quot;font-size: 10px&quot;&gt;Top20标签&lt;/font&gt;&lt;span style=&quot;font-size: 10px&quot;&gt;+置信度&lt;/span&gt;" style="shape=parallelogram;html=1;strokeWidth=2;perimeter=parallelogramPerimeter;whiteSpace=wrap;rounded=1;arcSize=12;size=0.23;fillColor=#d5e8d4;strokeColor=#82b366;" vertex="1" parent="1">
          <mxGeometry x="533" y="-778.13" width="70" height="50" as="geometry" />
        </mxCell>
        <mxCell id="tQyNcPp7STeRihkDV-gq-21" value="&lt;font style=&quot;font-size: 10px&quot; color=&quot;#cc0000&quot;&gt;置信度&amp;gt;0.4&lt;/font&gt;" style="rhombus;whiteSpace=wrap;html=1;" vertex="1" parent="1">
          <mxGeometry x="208" y="-678.13" width="60" height="60" as="geometry" />
        </mxCell>
        <mxCell id="tQyNcPp7STeRihkDV-gq-22" value="" style="endArrow=classic;html=1;exitX=0.5;exitY=1;exitDx=0;exitDy=0;entryX=0.5;entryY=0;entryDx=0;entryDy=0;" edge="1" parent="1" source="tQyNcPp7STeRihkDV-gq-11" target="tQyNcPp7STeRihkDV-gq-21">
          <mxGeometry width="50" height="50" relative="1" as="geometry">
            <mxPoint x="254.66000000000008" y="-822.63" as="sourcePoint" />
            <mxPoint x="254.66000000000008" y="-772.63" as="targetPoint" />
          </mxGeometry>
        </mxCell>
        <mxCell id="tQyNcPp7STeRihkDV-gq-23" value="是" style="text;html=1;align=center;verticalAlign=middle;resizable=0;points=[];autosize=1;" vertex="1" parent="1">
          <mxGeometry x="178" y="-598.13" width="30" height="20" as="geometry" />
        </mxCell>
        <mxCell id="tQyNcPp7STeRihkDV-gq-24" value="否" style="text;html=1;align=center;verticalAlign=middle;resizable=0;points=[];autosize=1;" vertex="1" parent="1">
          <mxGeometry x="263" y="-598.13" width="30" height="20" as="geometry" />
        </mxCell>
        <mxCell id="tQyNcPp7STeRihkDV-gq-25" value="" style="edgeStyle=segmentEdgeStyle;endArrow=classic;html=1;" edge="1" parent="1">
          <mxGeometry width="50" height="50" relative="1" as="geometry">
            <mxPoint x="208" y="-648.1300000000001" as="sourcePoint" />
            <mxPoint x="178" y="-558.1300000000001" as="targetPoint" />
          </mxGeometry>
        </mxCell>
        <mxCell id="tQyNcPp7STeRihkDV-gq-26" value="" style="edgeStyle=segmentEdgeStyle;endArrow=classic;html=1;exitX=1;exitY=0.5;exitDx=0;exitDy=0;entryX=0.5;entryY=0;entryDx=0;entryDy=0;" edge="1" parent="1" source="tQyNcPp7STeRihkDV-gq-21" target="tQyNcPp7STeRihkDV-gq-33">
          <mxGeometry width="50" height="50" relative="1" as="geometry">
            <mxPoint x="323" y="-638.13" as="sourcePoint" />
            <mxPoint x="293" y="-428.13" as="targetPoint" />
            <Array as="points">
              <mxPoint x="293" y="-648.13" />
            </Array>
          </mxGeometry>
        </mxCell>
        <mxCell id="tQyNcPp7STeRihkDV-gq-27" value="&lt;font color=&quot;#cc0000&quot;&gt;TopN(e.g.N=5)&lt;br&gt;&lt;/font&gt;结果" style="rounded=0;whiteSpace=wrap;html=1;" vertex="1" parent="1">
          <mxGeometry x="140" y="-558.13" width="80" height="40" as="geometry" />
        </mxCell>
        <mxCell id="tQyNcPp7STeRihkDV-gq-28" value="白场景" style="rounded=0;whiteSpace=wrap;html=1;" vertex="1" parent="1">
          <mxGeometry x="140" y="-378.13" width="80" height="40" as="geometry" />
        </mxCell>
        <mxCell id="tQyNcPp7STeRihkDV-gq-29" value="&lt;font color=&quot;#cc0000&quot;&gt;&lt;span style=&quot;font-size: 10px&quot;&gt;是否包含&quot;白场景&quot;标签&lt;/span&gt;&lt;/font&gt;" style="rhombus;whiteSpace=wrap;html=1;" vertex="1" parent="1">
          <mxGeometry x="148" y="-488.13" width="60" height="60" as="geometry" />
        </mxCell>
        <mxCell id="tQyNcPp7STeRihkDV-gq-30" value="" style="endArrow=classic;html=1;exitX=0.5;exitY=1;exitDx=0;exitDy=0;" edge="1" parent="1">
          <mxGeometry width="50" height="50" relative="1" as="geometry">
            <mxPoint x="178" y="-518.1300000000001" as="sourcePoint" />
            <mxPoint x="178" y="-488.1300000000001" as="targetPoint" />
          </mxGeometry>
        </mxCell>
        <mxCell id="tQyNcPp7STeRihkDV-gq-31" value="" style="endArrow=classic;html=1;exitX=0.5;exitY=1;exitDx=0;exitDy=0;entryX=0.5;entryY=0;entryDx=0;entryDy=0;" edge="1" parent="1">
          <mxGeometry width="50" height="50" relative="1" as="geometry">
            <mxPoint x="177.66000000000008" y="-428.1300000000001" as="sourcePoint" />
            <mxPoint x="177.66000000000008" y="-378.1300000000001" as="targetPoint" />
          </mxGeometry>
        </mxCell>
        <mxCell id="tQyNcPp7STeRihkDV-gq-32" value="是" style="text;html=1;align=center;verticalAlign=middle;resizable=0;points=[];autosize=1;" vertex="1" parent="1">
          <mxGeometry x="178" y="-418.13" width="30" height="20" as="geometry" />
        </mxCell>
        <mxCell id="tQyNcPp7STeRihkDV-gq-33" value="非白场景" style="rounded=0;whiteSpace=wrap;html=1;" vertex="1" parent="1">
          <mxGeometry x="253" y="-378.13" width="80" height="40" as="geometry" />
        </mxCell>
        <mxCell id="tQyNcPp7STeRihkDV-gq-34" value="" style="edgeStyle=segmentEdgeStyle;endArrow=classic;html=1;exitX=1;exitY=0.5;exitDx=0;exitDy=0;entryX=0.25;entryY=0;entryDx=0;entryDy=0;" edge="1" parent="1" target="tQyNcPp7STeRihkDV-gq-33">
          <mxGeometry width="50" height="50" relative="1" as="geometry">
            <mxPoint x="208" y="-458.1300000000001" as="sourcePoint" />
            <mxPoint x="233" y="-238.13" as="targetPoint" />
          </mxGeometry>
        </mxCell>
        <mxCell id="tQyNcPp7STeRihkDV-gq-35" value="否" style="text;html=1;align=center;verticalAlign=middle;resizable=0;points=[];autosize=1;" vertex="1" parent="1">
          <mxGeometry x="233" y="-478.13" width="30" height="20" as="geometry" />
        </mxCell>
        <mxCell id="tQyNcPp7STeRihkDV-gq-36" value="... ..." style="text;html=1;resizable=0;autosize=1;align=center;verticalAlign=middle;points=[];fillColor=#d5e8d4;strokeColor=#82b366;rounded=0;" vertex="1" parent="1">
          <mxGeometry x="473" y="-768.13" width="40" height="20" as="geometry" />
        </mxCell>
        <mxCell id="tQyNcPp7STeRihkDV-gq-37" value="... ..." style="text;html=1;resizable=0;autosize=1;align=center;verticalAlign=middle;points=[];fillColor=none;strokeColor=none;rounded=0;" vertex="1" parent="1">
          <mxGeometry x="413" y="-558.13" width="40" height="20" as="geometry" />
        </mxCell>
        <mxCell id="tQyNcPp7STeRihkDV-gq-38" value="&lt;span style=&quot;color: rgb(204 , 0 , 0) ; font-size: 10px&quot;&gt;置信度&lt;/span&gt;&lt;font style=&quot;font-size: 10px&quot; color=&quot;#cc0000&quot;&gt;&amp;gt;0.4&lt;/font&gt;" style="rhombus;whiteSpace=wrap;html=1;" vertex="1" parent="1">
          <mxGeometry x="532" y="-680.13" width="60" height="60" as="geometry" />
        </mxCell>
        <mxCell id="tQyNcPp7STeRihkDV-gq-39" value="是" style="text;html=1;align=center;verticalAlign=middle;resizable=0;points=[];autosize=1;" vertex="1" parent="1">
          <mxGeometry x="502" y="-600.13" width="30" height="20" as="geometry" />
        </mxCell>
        <mxCell id="tQyNcPp7STeRihkDV-gq-40" value="否" style="text;html=1;align=center;verticalAlign=middle;resizable=0;points=[];autosize=1;" vertex="1" parent="1">
          <mxGeometry x="587" y="-600.13" width="30" height="20" as="geometry" />
        </mxCell>
        <mxCell id="tQyNcPp7STeRihkDV-gq-41" value="" style="edgeStyle=segmentEdgeStyle;endArrow=classic;html=1;" edge="1" parent="1">
          <mxGeometry width="50" height="50" relative="1" as="geometry">
            <mxPoint x="532" y="-650.1300000000001" as="sourcePoint" />
            <mxPoint x="502" y="-560.1300000000001" as="targetPoint" />
          </mxGeometry>
        </mxCell>
        <mxCell id="tQyNcPp7STeRihkDV-gq-42" value="" style="edgeStyle=segmentEdgeStyle;endArrow=classic;html=1;exitX=1;exitY=0.5;exitDx=0;exitDy=0;entryX=0.5;entryY=0;entryDx=0;entryDy=0;" edge="1" parent="1" source="tQyNcPp7STeRihkDV-gq-38" target="tQyNcPp7STeRihkDV-gq-49">
          <mxGeometry width="50" height="50" relative="1" as="geometry">
            <mxPoint x="647" y="-640.13" as="sourcePoint" />
            <mxPoint x="617" y="-430.13" as="targetPoint" />
            <Array as="points">
              <mxPoint x="617" y="-650.13" />
            </Array>
          </mxGeometry>
        </mxCell>
        <mxCell id="tQyNcPp7STeRihkDV-gq-43" value="&lt;font color=&quot;#cc0000&quot;&gt;TopN(e.g.N=5)&lt;br&gt;&lt;/font&gt;结果" style="rounded=0;whiteSpace=wrap;html=1;" vertex="1" parent="1">
          <mxGeometry x="464" y="-560.13" width="80" height="40" as="geometry" />
        </mxCell>
        <mxCell id="tQyNcPp7STeRihkDV-gq-44" value="白场景" style="rounded=0;whiteSpace=wrap;html=1;" vertex="1" parent="1">
          <mxGeometry x="464" y="-380.13" width="80" height="40" as="geometry" />
        </mxCell>
        <mxCell id="tQyNcPp7STeRihkDV-gq-45" value="&lt;font color=&quot;#cc0000&quot;&gt;&lt;span style=&quot;font-size: 10px&quot;&gt;是否包含&quot;白场景&quot;标签&lt;/span&gt;&lt;/font&gt;" style="rhombus;whiteSpace=wrap;html=1;" vertex="1" parent="1">
          <mxGeometry x="472" y="-490.13" width="60" height="60" as="geometry" />
        </mxCell>
        <mxCell id="tQyNcPp7STeRihkDV-gq-46" value="" style="endArrow=classic;html=1;exitX=0.5;exitY=1;exitDx=0;exitDy=0;" edge="1" parent="1">
          <mxGeometry width="50" height="50" relative="1" as="geometry">
            <mxPoint x="502" y="-520.1300000000001" as="sourcePoint" />
            <mxPoint x="502" y="-490.1300000000001" as="targetPoint" />
          </mxGeometry>
        </mxCell>
        <mxCell id="tQyNcPp7STeRihkDV-gq-47" value="" style="endArrow=classic;html=1;exitX=0.5;exitY=1;exitDx=0;exitDy=0;entryX=0.5;entryY=0;entryDx=0;entryDy=0;" edge="1" parent="1">
          <mxGeometry width="50" height="50" relative="1" as="geometry">
            <mxPoint x="501.6600000000001" y="-430.1300000000001" as="sourcePoint" />
            <mxPoint x="501.6600000000001" y="-380.1300000000001" as="targetPoint" />
          </mxGeometry>
        </mxCell>
        <mxCell id="tQyNcPp7STeRihkDV-gq-48" value="是" style="text;html=1;align=center;verticalAlign=middle;resizable=0;points=[];autosize=1;" vertex="1" parent="1">
          <mxGeometry x="502" y="-420.13" width="30" height="20" as="geometry" />
        </mxCell>
        <mxCell id="tQyNcPp7STeRihkDV-gq-49" value="非白场景" style="rounded=0;whiteSpace=wrap;html=1;" vertex="1" parent="1">
          <mxGeometry x="577" y="-380.13" width="80" height="40" as="geometry" />
        </mxCell>
        <mxCell id="tQyNcPp7STeRihkDV-gq-50" value="" style="edgeStyle=segmentEdgeStyle;endArrow=classic;html=1;exitX=1;exitY=0.5;exitDx=0;exitDy=0;entryX=0.25;entryY=0;entryDx=0;entryDy=0;" edge="1" parent="1" target="tQyNcPp7STeRihkDV-gq-49">
          <mxGeometry width="50" height="50" relative="1" as="geometry">
            <mxPoint x="532" y="-460.1300000000001" as="sourcePoint" />
            <mxPoint x="557" y="-240.13" as="targetPoint" />
          </mxGeometry>
        </mxCell>
        <mxCell id="tQyNcPp7STeRihkDV-gq-51" value="否" style="text;html=1;align=center;verticalAlign=middle;resizable=0;points=[];autosize=1;" vertex="1" parent="1">
          <mxGeometry x="557" y="-480.13" width="30" height="20" as="geometry" />
        </mxCell>
        <mxCell id="tQyNcPp7STeRihkDV-gq-52" value="" style="endArrow=classic;html=1;exitX=0.5;exitY=1;exitDx=0;exitDy=0;entryX=0.5;entryY=0;entryDx=0;entryDy=0;" edge="1" parent="1">
          <mxGeometry width="50" height="50" relative="1" as="geometry">
            <mxPoint x="560.6600000000001" y="-728.1300000000001" as="sourcePoint" />
            <mxPoint x="560.6600000000001" y="-678.1300000000001" as="targetPoint" />
          </mxGeometry>
        </mxCell>
        <mxCell id="tQyNcPp7STeRihkDV-gq-53" value="白场景比例&lt;br&gt;&lt;font color=&quot;#cc0000&quot;&gt;&amp;gt;H%(e.g H=80)&lt;/font&gt;" style="rhombus;whiteSpace=wrap;html=1;" vertex="1" parent="1">
          <mxGeometry x="346.91" y="-258.13" width="110" height="80" as="geometry" />
        </mxCell>
        <mxCell id="tQyNcPp7STeRihkDV-gq-54" value="是" style="text;html=1;align=center;verticalAlign=middle;resizable=0;points=[];autosize=1;" vertex="1" parent="1">
          <mxGeometry x="322.99999999999994" y="-168.13" width="30" height="20" as="geometry" />
        </mxCell>
        <mxCell id="tQyNcPp7STeRihkDV-gq-55" value="直接通过" style="rounded=0;whiteSpace=wrap;html=1;" vertex="1" parent="1">
          <mxGeometry x="283" y="-128.13" width="80" height="40" as="geometry" />
        </mxCell>
        <mxCell id="tQyNcPp7STeRihkDV-gq-56" value="" style="edgeStyle=segmentEdgeStyle;endArrow=classic;html=1;exitX=1;exitY=0.5;exitDx=0;exitDy=0;" edge="1" parent="1" target="tQyNcPp7STeRihkDV-gq-59">
          <mxGeometry width="50" height="50" relative="1" as="geometry">
            <mxPoint x="456.90999999999985" y="-218.1300000000001" as="sourcePoint" />
            <mxPoint x="521.91" y="-138.13" as="targetPoint" />
          </mxGeometry>
        </mxCell>
        <mxCell id="tQyNcPp7STeRihkDV-gq-57" value="" style="edgeStyle=segmentEdgeStyle;endArrow=classic;html=1;" edge="1" parent="1">
          <mxGeometry width="50" height="50" relative="1" as="geometry">
            <mxPoint x="348" y="-218.1300000000001" as="sourcePoint" />
            <mxPoint x="318" y="-128.1300000000001" as="targetPoint" />
          </mxGeometry>
        </mxCell>
        <mxCell id="tQyNcPp7STeRihkDV-gq-58" value="否" style="text;html=1;align=center;verticalAlign=middle;resizable=0;points=[];autosize=1;" vertex="1" parent="1">
          <mxGeometry x="447.99999999999994" y="-168.13" width="30" height="20" as="geometry" />
        </mxCell>
        <mxCell id="tQyNcPp7STeRihkDV-gq-59" value="人审流程" style="rounded=0;whiteSpace=wrap;html=1;" vertex="1" parent="1">
          <mxGeometry x="444" y="-128.13" width="80" height="40" as="geometry" />
        </mxCell>
        <mxCell id="tQyNcPp7STeRihkDV-gq-60" value="&lt;font style=&quot;font-size: 10px&quot;&gt;时间戳1&lt;br&gt;&lt;/font&gt;" style="shape=parallelogram;perimeter=parallelogramPerimeter;whiteSpace=wrap;html=1;fixedSize=1;fillColor=#d5e8d4;strokeColor=#82b366;" vertex="1" parent="1">
          <mxGeometry x="213.75" y="-902.13" width="62.5" height="24" as="geometry" />
        </mxCell>
        <mxCell id="tQyNcPp7STeRihkDV-gq-61" value="&lt;font style=&quot;font-size: 10px&quot;&gt;时间戳2&lt;br&gt;&lt;/font&gt;" style="shape=parallelogram;perimeter=parallelogramPerimeter;whiteSpace=wrap;html=1;fixedSize=1;fillColor=#d5e8d4;strokeColor=#82b366;" vertex="1" parent="1">
          <mxGeometry x="313" y="-902.13" width="62.5" height="24" as="geometry" />
        </mxCell>
        <mxCell id="tQyNcPp7STeRihkDV-gq-62" value="&lt;font style=&quot;font-size: 10px&quot;&gt;时间戳3&lt;br&gt;&lt;/font&gt;" style="shape=parallelogram;perimeter=parallelogramPerimeter;whiteSpace=wrap;html=1;fixedSize=1;fillColor=#d5e8d4;strokeColor=#82b366;" vertex="1" parent="1">
          <mxGeometry x="391.13" y="-902.13" width="62.5" height="24" as="geometry" />
        </mxCell>
        <mxCell id="tQyNcPp7STeRihkDV-gq-63" value="&lt;font style=&quot;font-size: 10px&quot;&gt;时间戳M&lt;br&gt;&lt;/font&gt;" style="shape=parallelogram;perimeter=parallelogramPerimeter;whiteSpace=wrap;html=1;fixedSize=1;fillColor=#d5e8d4;strokeColor=#82b366;" vertex="1" parent="1">
          <mxGeometry x="553" y="-902.13" width="62.5" height="24" as="geometry" />
        </mxCell>
        <mxCell id="tQyNcPp7STeRihkDV-gq-66" value="&lt;ol&gt;&lt;li&gt;&lt;font color=&quot;#cc0000&quot;&gt;红色字体是可调参数&lt;/font&gt;&lt;/li&gt;&lt;li&gt;绿色框是需要考虑存储的数据&lt;/li&gt;&lt;/ol&gt;" style="rounded=0;whiteSpace=wrap;html=1;align=left;fillColor=#fff2cc;strokeColor=#d6b656;" vertex="1" parent="1">
          <mxGeometry x="23" y="-1053.13" width="237" height="60" as="geometry" />
        </mxCell>
      </root>
    </mxGraphModel>
  </diagram>
</mxfile>
